<?xml version="1.0" standalone="no"?>
<svg xmlns:xlink="http://www.w3.org/1999/xlink" id="wave" style="transform:rotate(0deg); transition: 0.3s" viewBox="0 0 1440 490" version="1.1" xmlns="http://www.w3.org/2000/svg"><defs><linearGradient id="sw-gradient-0" x1="0" x2="0" y1="1" y2="0"><stop stop-color="rgba(243, 106, 62, 1)" offset="0%"/><stop stop-color="rgba(255, 179, 11, 1)" offset="100%"/></linearGradient></defs><path style="transform:translate(0, 0px); opacity:1" fill="url(#sw-gradient-0)" d="M0,0L80,40.8C160,82,320,163,480,171.5C640,180,800,114,960,89.8C1120,65,1280,82,1440,114.3C1600,147,1760,196,1920,236.8C2080,278,2240,310,2400,334.8C2560,359,2720,376,2880,343C3040,310,3200,229,3360,163.3C3520,98,3680,49,3840,73.5C4000,98,4160,196,4320,261.3C4480,327,4640,359,4800,310.3C4960,261,5120,131,5280,89.8C5440,49,5600,98,5760,171.5C5920,245,6080,343,6240,392C6400,441,6560,441,6720,416.5C6880,392,7040,343,7200,310.3C7360,278,7520,261,7680,285.8C7840,310,8000,376,8160,343C8320,310,8480,180,8640,147C8800,114,8960,180,9120,236.8C9280,294,9440,343,9600,302.2C9760,261,9920,131,10080,114.3C10240,98,10400,196,10560,196C10720,196,10880,98,11040,89.8C11200,82,11360,163,11440,204.2L11520,245L11520,490L11440,490C11360,490,11200,490,11040,490C10880,490,10720,490,10560,490C10400,490,10240,490,10080,490C9920,490,9760,490,9600,490C9440,490,9280,490,9120,490C8960,490,8800,490,8640,490C8480,490,8320,490,8160,490C8000,490,7840,490,7680,490C7520,490,7360,490,7200,490C7040,490,6880,490,6720,490C6560,490,6400,490,6240,490C6080,490,5920,490,5760,490C5600,490,5440,490,5280,490C5120,490,4960,490,4800,490C4640,490,4480,490,4320,490C4160,490,4000,490,3840,490C3680,490,3520,490,3360,490C3200,490,3040,490,2880,490C2720,490,2560,490,2400,490C2240,490,2080,490,1920,490C1760,490,1600,490,1440,490C1280,490,1120,490,960,490C800,490,640,490,480,490C320,490,160,490,80,490L0,490Z"/><defs><linearGradient id="sw-gradient-1" x1="0" x2="0" y1="1" y2="0"><stop stop-color="rgba(243, 106, 62, 1)" offset="0%"/><stop stop-color="rgba(255, 179, 11, 1)" offset="100%"/></linearGradient></defs><path style="transform:translate(0, 50px); opacity:0.9" fill="url(#sw-gradient-1)" d="M0,98L80,138.8C160,180,320,261,480,285.8C640,310,800,278,960,269.5C1120,261,1280,278,1440,302.2C1600,327,1760,359,1920,326.7C2080,294,2240,196,2400,171.5C2560,147,2720,196,2880,196C3040,196,3200,147,3360,122.5C3520,98,3680,98,3840,81.7C4000,65,4160,33,4320,73.5C4480,114,4640,229,4800,269.5C4960,310,5120,278,5280,285.8C5440,294,5600,343,5760,334.8C5920,327,6080,261,6240,253.2C6400,245,6560,294,6720,310.3C6880,327,7040,310,7200,277.7C7360,245,7520,196,7680,171.5C7840,147,8000,147,8160,155.2C8320,163,8480,180,8640,220.5C8800,261,8960,327,9120,318.5C9280,310,9440,229,9600,187.8C9760,147,9920,147,10080,163.3C10240,180,10400,212,10560,187.8C10720,163,10880,82,11040,73.5C11200,65,11360,131,11440,163.3L11520,196L11520,490L11440,490C11360,490,11200,490,11040,490C10880,490,10720,490,10560,490C10400,490,10240,490,10080,490C9920,490,9760,490,9600,490C9440,490,9280,490,9120,490C8960,490,8800,490,8640,490C8480,490,8320,490,8160,490C8000,490,7840,490,7680,490C7520,490,7360,490,7200,490C7040,490,6880,490,6720,490C6560,490,6400,490,6240,490C6080,490,5920,490,5760,490C5600,490,5440,490,5280,490C5120,490,4960,490,4800,490C4640,490,4480,490,4320,490C4160,490,4000,490,3840,490C3680,490,3520,490,3360,490C3200,490,3040,490,2880,490C2720,490,2560,490,2400,490C2240,490,2080,490,1920,490C1760,490,1600,490,1440,490C1280,490,1120,490,960,490C800,490,640,490,480,490C320,490,160,490,80,490L0,490Z"/><defs><linearGradient id="sw-gradient-2" x1="0" x2="0" y1="1" y2="0"><stop stop-color="rgba(243, 106, 62, 1)" offset="0%"/><stop stop-color="rgba(255, 179, 11, 1)" offset="100%"/></linearGradient></defs><path style="transform:translate(0, 100px); opacity:0.8" fill="url(#sw-gradient-2)" d="M0,245L80,228.7C160,212,320,180,480,187.8C640,196,800,245,960,245C1120,245,1280,196,1440,179.7C1600,163,1760,180,1920,187.8C2080,196,2240,196,2400,196C2560,196,2720,196,2880,236.8C3040,278,3200,359,3360,343C3520,327,3680,212,3840,155.2C4000,98,4160,98,4320,106.2C4480,114,4640,131,4800,171.5C4960,212,5120,278,5280,326.7C5440,376,5600,408,5760,416.5C5920,425,6080,408,6240,392C6400,376,6560,359,6720,343C6880,327,7040,310,7200,285.8C7360,261,7520,229,7680,204.2C7840,180,8000,163,8160,179.7C8320,196,8480,245,8640,269.5C8800,294,8960,294,9120,318.5C9280,343,9440,392,9600,375.7C9760,359,9920,278,10080,220.5C10240,163,10400,131,10560,114.3C10720,98,10880,98,11040,130.7C11200,163,11360,229,11440,261.3L11520,294L11520,490L11440,490C11360,490,11200,490,11040,490C10880,490,10720,490,10560,490C10400,490,10240,490,10080,490C9920,490,9760,490,9600,490C9440,490,9280,490,9120,490C8960,490,8800,490,8640,490C8480,490,8320,490,8160,490C8000,490,7840,490,7680,490C7520,490,7360,490,7200,490C7040,490,6880,490,6720,490C6560,490,6400,490,6240,490C6080,490,5920,490,5760,490C5600,490,5440,490,5280,490C5120,490,4960,490,4800,490C4640,490,4480,490,4320,490C4160,490,4000,490,3840,490C3680,490,3520,490,3360,490C3200,490,3040,490,2880,490C2720,490,2560,490,2400,490C2240,490,2080,490,1920,490C1760,490,1600,490,1440,490C1280,490,1120,490,960,490C800,490,640,490,480,490C320,490,160,490,80,490L0,490Z"/></svg>